<svg xmlns="http://www.w3.org/2000/svg" viewBox="0 0 1536 1074" width="1024" height="716"><rect width="1536" height="1074" fill="#fff"/><path fill="#111" fill-rule="evenodd" d="M811 1004c-25-2-36-6-53-18c-17-12-33-33-42-58c-1-2-2-5-3-6c0-1-1-3-2-4c-1-3-3-9-4-15c0-2-1-5-1-7l-1-3-6 0c-9 0-25-4-31-8c-7-4-12-8-15-11c-5-5-7-5-13-5c-7 0-7 1-8 7c-2 13-11 19-35 20c-3 1-3 1-4 3c-11 35-32 57-62 65c-14 3-85 4-97 1c-3-1-4-1-12-4c-14-7-24-18-37-40c-2-3-5-11-5-12c0-1-1-2-1-2c-1-1-4-9-6-17c-1-3-1-6-2-7c-2-6-4-24-4-32c0-7 0-7-4-9c-1-1-3-3-5-4c-1-1-4-2-6-3c-9-1-10-1-11-2c-1 0-4-1-7-2c-15-6-22-17-25-40c0-5-1-10-1-11c0-1-7-4-23-10c-33-11-46-23-56-55c-2-4-3-8-3-9c-1-1-2-5-3-9c-2-5-3-10-4-13c-1-3-3-9-4-13c-1-4-2-8-3-9c-1-3-2-7-2-10c-2-7-3-9-8-11c-11-5-13-13-20-56c-3-25-4-64-1-83c0-2 0-6 0-8c0-2 1-6 1-8c1-2 1-7 2-10c1-9 3-21 5-25c9-26 13-33 27-41c6-4 23-10 30-11c8-2 9-2 9-4c-2-5-7-28-8-30c0-1-1-4-1-6c-1-6-2-6-12-4c-3 0-10 1-16 1c-5 1-11 1-13 2l-3 0 1 4c0 2 1 8 2 13c6 33-2 42-32 40c-7-1-13-1-14-2c-1 0-3-1-4-1c-2 0-4 0-6 0c-2-1-10-2-18-3c-8-2-16-3-19-4c-2 0-6-1-7-2c-27-5-34-14-46-57c0-2-1-6-2-10c0-3-1-8-2-9c0-2-1-6-1-10c-1-4-1-9-2-11c-3-20 0-35 8-39c9-6 24-7 33-4c0 1 5 2 9 4c16 4 41 15 44 17c1 1 3 1 23 0c4-1 15-2 23-2c15-1 34-3 51-5c5 0 12-1 17-1c5 0 15-1 20-1c6-1 18-2 26-2c17-2 32-3 39-3c9-1 13-1 29-3c48-3 59-4 66-5c4 0 14-1 22-1c24-1 21-1 32-8c5-4 10-8 11-9c1 0 6-3 10-6c10-6 27-15 29-15c0 0 3-1 6-3c3-1 8-3 12-5c7-2 9-3 11-4c1-1 2-1 2-1c1 0 5-1 9-2c13-5 16-6 24-7c9-3 16-4 20-5c1-1 6-2 11-2c5-1 10-2 12-3c7-1 17-3 29-5c33-4 35-4 47-5c69-6 155-5 201 2c2 0 6 1 9 1c2 1 7 2 12 2c4 1 10 2 14 3c3 0 10 2 16 3c6 1 13 3 16 3c5 2 9 3 12 4c1 0 4 1 11 3c4 1 25 8 28 9c1 1 4 2 5 2c1 1 5 3 8 4c15 6 31 16 42 27c7 5 8 7 18 22c4 5 8 11 9 13c2 2 4 6 6 7c1 2 2 4 2 5c1 2 9 14 13 21c2 4 4 8 6 10c1 2 2 5 3 6c4 6 13 24 18 32c2 5 6 12 8 16c2 3 5 9 7 13c4 9 4 9 6 5c5-8 15-12 39-11c31 0 41 8 41 34c0 17-5 26-16 30c-2 1-4 2-5 2c0 1-4 1-9 2c-7 2-9 2-6 3c6 2 17 4 23 6c16 4 18 5 19 6c1 0 2 0 3 0c1 0 2 1 2 1c1 1 4 2 7 2c5 2 12 4 16 6c0 0 3 1 6 2c3 1 6 2 7 3c1 0 6 2 10 4c8 3 20 9 25 11c13 7 16 9 31 18c44 29 74 67 86 110c0 1 1 4 2 6c2 7 5 28 6 43l1 9 5 2c8 2 14 9 17 18c1 3 2 7 2 34c0 31 0 30-4 43c-1 6-7 17-11 20c-4 3-15 10-17 10c-3 0-3 2-3 14c0 22-5 53-11 65c-1 4-2 5-4 12c-12 29-38 54-63 60c-13 4-17 4-31 6c-63 5-90-3-115-36c-5-5-11-15-11-16c0 0-2-4-4-8c-3-7-7-16-8-20c0 0 0-2-1-3c-1-3-2-6-3-13l-1-7-4 0c-1 0-3 0-4 0c-23 2-39 3-65 3l-24 1-1 2c0 1-1 2-1 3c-1 1-1 2-1 3c0 2-7 17-10 22c-16 26-35 40-60 43c-5 1-10 2-12 2c-14 3-49 2-62-1c-3-1-7-2-8-2c-2-1-3 0-11 15c-2 3-6 8-9 12c-3 3-7 7-9 9c-8 10-28 21-47 26c-2 0-4 1-6 1c-10 3-61 5-77 3zM839 995c1 0 4-1 8-3c9-3 13-6 8-7c-2 0-5-1-8-2c-7-3-8-3-12 1c-4 3-12 7-18 9c-4 1-5 2-2 2c3 1 22 1 24 0zM879 993c15-2 18-4 32-18c9-9 14-16 23-35c6-13 10-23 14-43c1-6 2-16 3-27l0-10-2 0c-1 0-3-1-6-1c-4 0-16-2-21-4c-1 0-2 0-2 13c0 14-1 19-4 35c-2 12-3 15-9 31c-2 6-11 23-14 27c-1 2-4 5-6 8c-7 9-18 19-25 24c-5 3-2 3 17 0zM807 989c2 0 4-1 5-1c0-1 1-1 2-1c4 0 18-8 25-14c6-6 16-18 16-20c0 0 1-2 3-4c1-2 3-5 4-7c1-2 2-5 3-6c5-8 11-35 13-58c2-13 0-36-3-50c-2-8-4-14-5-17c-2-7-5-17-7-19c0-2-2-5-2-6c-1-2-2-5-4-6c-1-2-2-4-2-4c0-1-5-8-9-13c-16-22-43-35-63-31c-27 5-45 23-61 60c-1 3-4 15-5 19c0 2-1 5-1 7c-5 19-5 58-1 77c1 1 2 4 2 6c2 11 9 29 12 34c1 2 3 5 4 7c19 34 49 53 74 47zM925 975c6-4 6-5 2-5c-2 0-3 1-6 5c-5 6-4 6 4 0zM872 976c5-5 5-5-2-7c-3-1-8-2-10-3l-4-2-5 5c-5 6-5 6 0 8c9 3 16 2 21-1zM883 962c4-4 4-6-1-6c-2 0-13-4-15-5c-2-2-2-2-4 2c-3 4-3 4 0 7c7 3 18 5 20 2zM937 963c3-1 11-10 11-12c0 0-1 0-3 0c-2 1-5 1-6 1c-3 0-4 2-8 9c-1 3 2 3 6 2zM482 957c2-1 2-1-7-4c-6-2-9-2-10 1c-1 0-2 1-3 2c-1 0-2 1-2 1c0 1 19 1 22 0zM522 956c1-1 5-3 8-6c3-3 6-6 7-6c1-1 15-23 15-24c0-1 2-5 5-12c5-11 11-45 10-58c-1-5-6-5-24-1c-5 1-4-1-5 15c0 9-2 19-4 27c0 2-1 5-1 6c-2 5-4 11-4 12c-1 1-1 2-1 2c0 3-11 25-16 30c-7 9-9 11-12 13c-5 3-4 3 9 3c6-1 12-1 13-1zM1349 955c5-1 5-1 2-3c-2-1-2-1-5 0c-1 1-3 2-4 2c-1 0-2 0-2 1c0 2 4 2 9 0zM446 955c10-2 20-8 28-18c7-9 15-25 18-37c0-2 1-5 2-8c6-22 5-60-1-82c0-1-1-4-1-7c-1-2-2-5-2-7c-1-4-8-21-10-24c-1-2-3-5-4-7c-12-21-35-34-51-29c-21 6-34 24-43 56c-8 27-7 68 0 96c12 42 39 70 64 67zM1325 953c6-1 15-4 18-6c1-1 4-3 6-4c9-6 21-20 27-30c1-3 3-6 3-7c2-2 9-22 11-33c1-3 2-8 3-9c1-3 2-14 2-25c1-9 2-8-10-5c-5 1-11 3-15 3c-10 2-10 2-11 10c0 11-3 22-7 30c-1 3-2 5-3 6c-1 3-9 13-13 17c-26 25-64 7-77-35c-3-8-1-8-15-6l-12 1 0 3c0 6 4 20 7 27c1 2 2 5 3 7c1 4 7 14 11 21c13 19 27 29 49 35c5 2 15 2 23 0zM1382 953c12-3 28-16 39-32c5-7 13-23 13-25c0-1 1-2 2-4c1-4 4-15 6-23c0-3 1-7 1-9c2-8 2-19 2-30c0-12 1-11-10-9c-4 1-8 3-9 3l-2 0 1 8c0 12-3 42-6 49c-2 5-4 12-4 13c0 2-9 22-13 27c-2 3-4 6-4 7c0 0 0 0-1 0c0 0-2 2-3 4c-3 5-13 15-19 19c-5 4-4 5 7 2zM546 948c2-1 5-2 6-3c6-3 6-5 0-5c-3 0-4 1-6 4c-2 2-3 4-4 4c0 0 0 1 0 1c0 2 0 2 4-1zM894 946c2-3 3-6 4-7c0-1 1-4 2-5c0-1 1-3 1-3c0-1-10-3-14-3c-1 0-4 0-6-1l-4-2-2 2c-1 2-2 3-2 3c0 1-2 7-4 10c-1 2 0 4 1 4c1 0 2 0 2 1c2 1 8 3 14 4c2 0 5 0 5 0c1 0 2-1 3-3zM1369 946c4-2 6-4 3-4c-1 0-2 0-3-1c-2-2-6-2-9 1c-5 4-5 5-1 6c3 2 4 1 10-2zM498 946c3-2 2-4-3-4c-3 0-5 0-6-1c0 0-1-1-2-1c-1 0-2 0-2 0c-2-2-5-2-7 1c-1 1-2 2-2 3c-1 0-1 1 0 1c3 3 18 4 22 1zM952 942c3-1 11-14 10-15c0 0-3 0-8 0l-7 0-3 7c-1 4-3 8-3 8c-2 2 5 2 11 0zM784 941c-14-5-24-14-33-30c-5-9-7-14-10-27c-3-15-4-37-1-49c6-25 13-37 27-47c8-6 11-8 22-8c19 0 31 9 43 31c10 17 15 54 10 75c-1 4-2 7-2 9c0 1-1 4-2 5c0 1-2 5-3 8c-3 9-13 22-22 28c-7 5-22 7-29 5zM1425 932c6-6 10-11 9-12c-1-2-4 0-7 4c-6 8-8 12-9 12c-1 0-1 2 0 2c0 0 3-3 7-6zM804 935c10-4 16-11 25-26c11-19 13-60 4-81c0-1-1-3-1-5c-3-9-14-25-21-30c-28-21-58 0-66 47c-2 7-2 30 0 35c0 2 1 6 2 10c7 36 33 58 57 50zM1385 932c8-8 9-9 2-11c-3 0-6-1-7-1c-2-1-2 0-5 4c-2 3-4 5-4 6c-4 3 1 6 8 6c3 0 3 0 6-4zM509 933c2-2 7-12 7-13c-1 0-3 0-6 0c-3 0-8-1-11-2c-3-1-6-2-6-2c-1 0-7 15-7 16c0 0 2 1 4 1c1 1 4 1 5 1c7 2 12 1 14-1zM565 932c1-1 8-11 8-12c0 0-3 0-6 0l-7 0-2 3c-1 2-2 5-3 7c-1 1-2 3-2 3c1 1 10 0 12-1zM1020 932c4-1 12-5 12-6c0-2-6-2-8-1c-1 1-4 3-6 4c-5 3-4 5 2 3zM1000 931c9-3 23-12 29-19c1-2 3-4 4-5c3-2 11-18 11-20c0-1 0-1 1-2c1-1 3-8 2-9c0 0-4 0-9 0c-4 1-11 1-15 0c-8 0-7 0-13 6c-6 6-15 12-23 14c-6 1-5 1-7 9c-1 4-3 10-4 13c-4 10-3 10-1 11c8 3 17 4 25 2zM1051 930c16-3 34-27 45-59c1-5 1-5-5-5c-2 0-5 0-7 1c-2 1-4 1-4 1c-2 0-4 4-5 7c-1 5-3 11-6 17c-1 3-3 7-4 8c-3 8-17 26-23 29c-5 3-3 3 9 1zM904 922c0-1 0-2 0-3c0-1 1-2 1-3c1-1 1-2 2-3c0-1 1-3 1-6l0-4-11-1c-6 0-12-1-13-1c-2 0-4 4-5 14c-1 4 1 5 9 6c4 0 6 1 7 1c0 1 8 0 9 0zM962 918c4-1 5-3 6-9c1-2 1-4 1-5l1-3-5 1c-11 1-10 1-13 7c-1 3-2 7-2 8l0 3 5-1c3 0 6-1 7-1zM1046 916c1-2 4-5 4-6c1-1 2-3 3-3c1 0 8-14 10-21c1-3 2-5 3-6c1-1 1-6 0-6c-1 0-11 3-12 3c0 1-1 3-1 4c-1 7-15 31-19 35c-2 1 0 3 4 3c4 0 4-1 8-3zM1088 912c10-10 22-29 26-42c1-4 1-4-5-4l-5 0-1 6c-1 3-2 7-3 8c-1 2-1 3-5 11c-3 8-7 15-12 22c-1 2-3 4-3 5c0 1 2-1 8-6zM1400 911c1-3 3-6 4-9c1-2 2-4 2-5c2-2 1-3-5-4c-3 0-6-1-7-2c-1 0-3 2-3 4c0 0-2 4-4 8c-5 10-5 10 2 12c8 2 8 2 11-4zM427 913c-4-1-11-6-13-8c-5-7-12-21-16-32c-5-17-4-52 2-66c8-21 18-30 32-30c17 0 31 19 38 52c2 11 1 42-1 46c-1 0-1 2-1 4c-4 23-25 41-41 34zM518 912c2 0 3-2 3-4c1-2 1-3 2-4c1-2 3-9 2-10c0 0-1-1-3 0c-3 0-17-1-19-2c-2-1-3 0-4 2c0 1 0 4-1 6c-2 5-2 9-1 10c3 1 18 3 21 2zM574 912c3-1 5-2 5-2c0-1 1-3 2-5c2-5 4-10 4-12c0-1-3 0-13 1l-3 0-2 4c-1 7-3 11-4 12c-2 3 4 3 11 2zM1440 911c2-1 10-13 9-14c-1-1-7-1-7 0c-1 1-1 2-2 2c0 1-2 4-3 7c-3 7-2 8 3 5zM444 907c9-5 16-16 19-31c8-34 2-68-15-87c-19-20-45 2-48 42c-2 14 1 36 4 45c1 0 1 3 2 5c7 22 25 34 38 26zM1320 904c5-2 12-7 15-11c4-4 10-12 10-13c0 0 1-3 2-6c5-9 6-15 7-27l1-6-4 1c-3 0-13 2-23 4c-3 0-8 1-10 2c-6 1-16 2-23 3c-6 1-18 3-25 4c-6 1-8 2-7 4c1 4 2 7 2 8c1 0 1 1 1 2c0 1 7 15 8 16c0 0 1 2 2 3c4 6 17 15 24 17c4 1 17 1 20-1zM787 897c-15-4-25-36-17-55c8-17 19-23 31-16c11 7 15 17 15 36c0 25-12 39-29 35zM910 895c1 0 1-3 2-6l0-5-12-2c-7 0-13-1-14-1c-2 0-3 4-2 10l0 3 6 1c6 1 19 1 20 0zM964 894c6-1 7-1 8-2c1-2 2-10 1-11c0 0-15 2-15 2c-1 1-2 9-2 11c-1 2 0 2 8 0zM799 890c3-3 8-8 8-10c0-1 1-2 1-4c3-5 3-22 0-30c-10-29-35-18-34 15c0 22 13 36 25 29zM992 887c5-2 8-5 14-10l7-7 14 0c21 0 43-4 27-5c-8 0-59-2-66-2l-4 0 0 11c0 6-1 12-1 13c-2 4 1 5 9 0zM1451 888c2 0 3-2 5-9c1-3 2-7 3-8c1-3 1-5-1-5c-3 0-9 3-9 4c0 1 0 2-1 2c0 0-1 1-1 3c0 1 0 3-1 5c0 2-1 4-1 6l-1 3 3-1c1 0 3 0 4 0zM528 885c1-2 2-10 3-17l0-4-11 0c-7 0-13-1-14-1l-2 0-1 10c-1 12-1 12 4 12c1 0 3 0 5 1c4 1 15 1 16-1zM580 885c6-1 8-2 8-7c0-2 1-4 1-4c0-1 0-1-3-1c-1 0-4 0-7 0c-6 1-6 1-7 8c-1 5-1 6 1 5c1 0 4-1 7-1zM611 885c11-2 13-6 13-23c0-12 0-12-5-12c-1 0-6 0-10-1l-7 0-1 6c-1 3-1 7-1 8c0 3-1 12-3 18c0 2 0 5 0 5c0 1 7 1 14-1zM1411 883c3-10 5-21 5-23c0-2 0-2-8-2l-8 0-1 4c0 2-1 5-1 6c0 1 0 3-1 5c-2 6-3 11-3 11c1 1 7 2 12 2l4 0 1-3zM702 883c2-1 2-1 1-6c-1-3-1-8-1-12c0-6-1-9-3-9c0 0-1 0-2-1c-2-1-3-1-9-1c-4 0-12-1-17-1c-18-2-38-2-38-2c0 0 0 2 0 5l0 4 9 0c9 1 10 1 15 6c14 11 26 17 39 18c2 0 4 0 4 0c1 0 2 0 2-1zM428 877c-19-11-17-59 3-63c19-3 30 36 16 56c-5 7-13 10-19 7zM911 875c2 0 3-1 3-6c0-3-1-5-1-5c0 0-5 0-10 0c-17-1-18-1-18-1c0 11-1 10 12 12c9 2 11 2 14 0zM971 873l4 0 0-5l0-5-3-1c-6-2-13-2-13 0c-1 1-1 10-1 13c1 1 9-1 13-2zM439 870c8-5 11-25 6-38c-9-23-28-7-24 20c3 15 10 23 18 18zM587 865c4-1 4-1 4-9c1-8 2-8-9-8l-7-1-1 4c-1 5 0 14 1 15c0 1 7 0 12-1zM1460 858c1-1 2-1 2-6c0-3 1-7 1-9c1-4 1-9 1-10c-1 0-7 1-8 2c0 0-1 1-2 1c-2 0-2 1-2 10c-1 4-1 9-1 11l-1 3 4 0c2 0 5-1 6-2zM531 856c1-2 1-7 0-7c-4 0-16-8-19-11c-3-4-4-4-6-5l-2 0 0 11c0 6 0 11 0 11c2 1 25 2 27 1zM912 855c3-1 3-3-1-5c-2 0-4-1-5-2c-7-4-12-8-15-11c-5-5-10-6-9-3c1 1 1 6 2 10c1 10 1 10 4 11c1 0 4 0 5 1c4 0 16 0 19-1zM1176 855c27-2 39-3 71-6c23-3 33-4 43-6c2 0 7-1 11-2c17-3 22-3 31-6c2 0 6-1 10-1c10-2 18-4 22-5c3 0 6-1 8-2c12-2 22-4 25-5c1-1 6-2 9-3c5-1 13-3 19-5c2 0 6-1 10-2c7-2 13-4 15-4c0-1 3-2 6-3c39-11 45-20 44-75c-1-27-1-29-6-34c-5-5-11-6-21-2c-5 2-10 4-19 6c-5 1-10 2-11 2c-6 1-11 2-18 3c-8 2-17 3-24 5c-2 0-6 1-9 1c-16 3-22 4-30 9c-14 9-19 10-38 14c-25 4-31 5-46 7c-5 1-9 2-10 2c-2 0-5 1-9 1c-3 0-9 1-12 2c-33 4-125 9-133 6c-8-2-11-3-16-5c-10-5-7-5-79-5c-62 0-71 0-95-3c-21-1-32 1-37 8c-4 6-4 23 2 35c2 4 2 5 5 16c2 6 3 9 4 12c0 0 1 3 2 6c8 23 19 31 48 35c7 0 74 4 95 5c28 1 108 0 133-1zM1417 850c1 0 0-23-1-23c-4 0-13 2-14 3c-2 2-2 20 0 21c2 0 13 0 15-1zM702 830c0-26 4-54 10-68c0-1 2-5 3-9c10-28 26-46 51-56c11-6 34-5 46 1c18 8 35 27 45 48c1 3 3 6 4 8c1 1 2 3 2 5c1 1 3 6 5 11c4 7 6 11 7 16c1 0 1 2 2 3c0 1 1 3 2 5c1 4 9 22 10 23c0 1 1 3 2 5c3 4 7 9 7 9c1-1 0-3-5-14c-1-2-4-11-7-19c-3-9-5-17-6-19c-4-12-4-27-1-34c4-7 10-11 20-13c3-1 4-2 2-5c-1-2-3-5-5-9c-1-3-4-8-6-11c-2-3-5-8-6-9c-19-32-55-53-80-48c-2 1-5 1-8 2c-28 6-58 33-75 66c-4 8-8 18-10 23c-1 3-2 6-2 6c-1 3-4 11-5 17c-1 3-2 7-2 9c-6 25-7 61-2 72c1 5 2 1 2-15zM692 844c0 0 0-3-1-5c0-3-1-8-1-13c0-7-1-8-2-8c-1 0-5-1-10-1c-17-2-34-3-46-4c-14-1-24-2-44-3c-9-1-20-2-26-2c-6-1-11-1-12-1c-3-1-4 17-1 22c3 8 3 8 8 8c2 0 9 0 15 1c6 0 18 1 26 1c26 1 74 5 93 6c1 0 1 0 1-1zM545 838c1-1 1-1 0-3c-4-6-5-15-3-24c1-6 1-7-3-29c-1-2-2-5-2-6c-1-2-2-6-2-8c-1-4-4-13-5-15c0-1-1-4-2-6c-1-5-4-13-7-22c-5-14-15-30-25-42c-4-4-15-13-22-16c-28-13-62 1-87 38c-2 2-3 5-3 5c0 1 0 1-1 1c-1 0-10 18-12 25c-5 12-7 20-8 24c-2 9-2 11-3 17c-1 4-2 11-3 30c-1 7 3 22 6 20c0 0 0-2-1-3c-2-8 0-33 3-46c1-2 2-6 3-10c1-6 2-9 4-13c0-1 2-5 3-8c1-3 2-5 2-6c1 0 2-3 4-6c16-30 42-43 70-32c9 3 23 14 29 23c2 2 4 6 6 8c3 4 8 14 8 15c0 1 1 3 2 5c1 3 2 5 3 6c1 3 7 20 7 21c0 1 0 2 0 3c1 1 3 9 6 26c4 19 8 25 16 28c3 1 16 1 17 0zM1235 832c0 0-3 0-7-1c-27-3-53-16-77-39c-11-10-9-10-12-6c-7 9-11 5-5-4c7-11 25-19 25-12c0 0-2 1-4 3c-4 3-4 3 5 4c4 1 8 2 10 2c26 5 81 5 106-1c4 0 9-2 12-2c12-3 35-11 45-16c10-5 13-5 13-2c0 2-2 4-9 8c-5 3-6 4-8 9c-14 28-36 48-61 54c-9 2-31 5-33 3zM1462 826c2-1 2-1 2-7l0-6-3 0c-4 1-8 3-8 4c-1 2-1 9-1 10c1 0 7 0 10-1zM506 825c0-2-4-23-5-23c-2-1-3 0-3 2c2 6 3 10 3 14c1 7 4 10 5 7zM883 825c0-1-3-7-4-7c0-1 1 4 2 6c0 2 2 2 2 1zM351 820c-2-17 2-54 9-70c0-2-35-1-38 0c-5 4-6 14-4 30c0 3 1 8 1 12c3 15 7 24 16 28c3 2 12 5 14 5l3 0-1-5zM1257 824c9-1 25-7 25-9c0-1-8-7-13-9c-10-3-11-4-21-3c-10 0-11 0-7 3c2 1 6 7 6 8c0 0-2 0-4-1c-4-3-12-7-15-7c-2-1-5-2-7-2c-8-2-24-1-26 1c0 0-1 1-2 1c-2 0-7 2-6 3c1 3 27 13 39 15c7 1 23 1 31 0zM691 808c0-3 1-8 1-13c1-5 2-12 2-16c1-4 2-8 2-9c0-3 0-3-3-3c-2 0-6-1-9-1c-12-2-13-2-14 1c0 2 0 18 1 28c1 3 1 8 1 10c1 5 1 5 10 6c3 0 7 0 7 0c1 0 1-1 2-3zM1296 807c8-7 16-17 22-27c5-8 5-8-3-4c-2 0-6 2-9 3c-3 0-8 2-10 2c-8 3-22 6-41 8c-9 1-51 2-59 1c-17-2-21-3-31-5c-6-1-11-1-11-1c-1 1 6 7 10 10c17 12 15 12 21 8c11-5 28-7 39-4c5 1 8 1 14 0c14-4 36 1 47 11c4 3 5 3 11-2zM666 806c0-1 0-9-1-17c0-9 0-18 0-20c0-6 1-6-8-7c-4 0-8-1-10-1c-4-1-6-1-25-4c-13-2-17-3-22-4c-7-1-18-3-28-4c-11-2-16-3-21-3c-8-2-16-3-16-3c0 1 1 4 2 8c1 4 2 10 3 13c1 3 2 7 2 7c1 1 2 7 3 13c2 6 3 12 4 14l1 3 7 0c5 0 19 1 31 2c13 1 29 2 34 2c6 1 15 2 20 2c25 3 24 3 24-1zM645 800c-1 0-2-1-3-1c-1-1-1-1-3 0c-2 1-6 0-6-2c0-2-1-2-4-1c-12 8-21-8-13-21c4-5 15-5 18 0c1 2 1 2 2 0c1-2 2-2 4-2c2 0 5 0 7 0c6 0 7 1 5 13c-1 5-1 5 3 6c2 0 3 3 2 7c-1 1-7 2-12 1zM655 796c0-1-1-1-3-2l-3-1 0-4c2-15 2-13 0-13c-2 0-3 1-4 10c-2 11-2 11 2 11c6 1 8 1 8-1zM638 796c2-2 5-19 4-20c-1-2-4-1-4 0c-3 16-4 21-1 21c0 0 1 0 1-1zM595 795c-2 0-4-1-5-2c-1 0-1 0-2 0c-2 2-8 1-10 0c-2-2-2-2-3-1c-2 2-8 1-8-3c-1-2-3-2-5 1c-3 3-8 3-8-1c0-2 3-11 7-18c4-8 12-7 12 1c0 2 1 4 2 3c0 0 0-1 1-3c3-4 11-7 16-4c1 1 2 1 2 1c1-1 9-1 13 0c3 1 3 7 0 8c-2 1-2 1-1 2c3 3 1 6-2 6c-2 0-2 2 0 3c2 1 2 1 2 4c0 4-2 5-11 3zM629 793c5-4 6-14 2-17c-8-8-18 2-15 14c2 6 9 8 13 3zM499 792c0-2-1-4-1-5c0-1-2-5-3-9c-2-8-3-8-6-8c-3 0-3 0 1 9c2 4 4 7 4 9c2 6 2 7 4 7c2 0 2 0 1-3zM373 790c2-3 3-9 3-11c0 0 1-1 1-2c0 0 1-2 2-3c3-8 13-25 15-27c0 0 2-2 3-4c12-15 31-24 51-24c13-1 13-1 8-4c-5-3-9-4-15-6c-7-2-23 0-29 4c-18 11-31 34-38 69c-1 3-2 14-2 11c1-1 1-2 1-3zM604 792c1-1-1-3-5-3c-2 0-2 0-2-2c0-2 1-4 3-4c3 0 4 0 4-1c0-1 0-2-3-2c-5-1-3-5 2-5c4 0 6-3 2-4c-9-1-10-1-11 7c0 3-1 8-1 10c-1 4-1 4 3 5c4 1 8 1 8-1zM587 791c4-2 3-4-1-3c-4 0-6-2-6-6c0-7 4-10 8-8c3 2 4 2 4-1c0-3-8-5-11-2c-10 8-4 26 6 20zM621 790c-3-4 0-13 4-13c5 1 6 9 2 13c-3 3-4 3-6 0zM573 787c-2-17-3-19-6-19c-2 0-2 1-5 5c-4 10-6 15-6 16c0 2 3 1 4-1c2-4 8-4 9 0c1 4 4 4 4-1zM626 787c0-1 1-7 0-7c-2-2-5 4-4 8c1 1 2 1 4-1zM590 783c3-3 0-7-4-7c-3 0-4 7-3 9c1 1 6-1 7-2zM720 774c5-10 11-18 21-31c11-12 33-24 51-28c12-2 15-3 20-3c4 0 6 0 6 0c0-1-9-6-15-8c-2 0-4-1-5-1c-9-4-30 1-42 9c-9 6-24 23-24 26c0 0-1 2-2 4c-1 2-3 5-4 7c-1 3-2 5-3 7c-3 7-4 11-6 20c0 1-1 3-1 5c-2 4 0 3 4-7zM564 781c-1-1 1-6 2-6c1 0 2 5 1 6c0 0-1 1-1 1c-1 0-2-1-2-1zM308 762c0-6 2-11 5-15c2-3 2-4 1-6c-7-8-8-50-2-67c3-8 1-13-6-14c-2 0-6 0-8-1c-10-2-13-2-18-3c-2-1-7-2-10-2c-3-1-7-1-9-2c-6-1-10-2-21-4c-6-1-12-2-14-2c-1-1-3-1-5-2c-1 0-3 0-3 0c0 1 3 13 5 20c1 4 3 9 3 12c1 3 4 12 6 18c3 7 5 13 5 14c0 1 0 2 1 3c0 0 1 4 3 7c7 21 17 32 38 40c5 2 10 4 12 5c17 6 16 6 17-1zM698 762c1-2 1-4 1-6c5-27 32-71 55-90c4-3 6-5 6-5c1-1 1-1 1-1c1 0 3-1 4-2c4-3 16-9 22-11c13-4 36-4 47 0c0 1 4 2 7 3c13 6 27 16 36 27c11 14 15 20 26 42l6 11 11 1c6 1 15 1 20 2c7 1 28 1 79 1c75-1 69-1 80 4c3 1 6 2 9 4c8 3 44 3 92-1c5 0 13-1 19-1c14-2 33-3 37-4c3-1 6-1 25-4c15-2 24-4 28-4c5-2 6-2 14-3c14-2 21-5 29-9c1 0 3-2 5-3c2-1 4-2 5-3c6-3 15-5 35-8c7-2 14-3 16-3c6-1 11-2 18-3c19-3 37-8 41-10c3-2 4-5 3-16c-1-10-1-9-5-6c-5 4-17 10-28 14c-3 1-7 2-8 2c-2 1-7 2-10 3c-2 1-7 2-12 2c-19 4-25-3-22-29c1-14 5-25 12-34c6-7 32-33 35-34c1-1 4-2 6-3c2-1 4-3 4-3c0-4-23-29-34-39c-2-1-7-5-10-8c-7-6-7-6-22-15c-15-10-17-11-41-23c-5-2-9-4-10-4c-1-1-3-2-6-3c-2-1-5-2-8-3c-2-1-5-1-5-2c-1 0-6-2-12-4c-6-2-12-4-15-5c-3-1-8-3-11-3c-4-1-7-2-8-3c-3-1-7-2-14-3c-4-1-8-2-9-3c-1 0-3-1-5-1c-2-1-4-1-5-2c-2 0-4-1-7-2c-9-2-13-8-27-35c-4-7-8-15-9-18c-2-2-5-9-8-14c-2-5-7-15-11-21c-3-6-7-13-8-16c-5-9-7-13-11-19c-2-4-3-7-3-7c0 0-1-1-2-3c-1-1-3-5-6-10c-12-20-30-48-39-58c-3-5-15-16-19-17c-1-1-2-2-3-3c-2-1-17-9-22-11c-3-1-5-2-6-3c-2-1-1 0 6 7c4 4 9 9 10 11c3 5 6 8 8 9c1 0 7 2 13 5c6 4 18 16 22 23c18 27 21 33 28 46c2 2 3 5 4 6c1 0 1 1 1 1c0 1 2 4 4 7c2 4 4 7 4 8c1 1 2 4 4 7c1 4 5 10 7 14c5 10 10 20 15 31c3 6 6 13 8 16c2 3 4 9 6 13c2 4 3 8 4 9c2 4 3 9 3 14l0 4 4 2c2 1 6 3 8 3c4 2 8 3 14 6c2 1 5 2 8 3c5 2 20 10 21 10c0 1 3 3 11 6c3 2 7 4 9 6c2 1 4 2 5 2c4 2 29 20 34 24c1 2 3 3 4 4c3 2 23 22 26 26c2 2 3 4 4 4c4 6 15 24 18 32c3 8 4 21 2 25c-6 10-15 15-36 18c-3 1-7 1-11 2c-10 2-14 3-23 4c-19 3-25 3-29 4c-12 2-24 4-46 6c-6 0-15 1-19 2c-57 6-81 5-104-2c-16-5-28-12-48-27c-7-5-16-12-32-22c-3-2-6-4-7-4c-2-1-4-2-6-3c-8-6-58-32-60-32c-1 0-3-1-5-2c-9-4-12-5-16-6c-2-1-4-2-4-2c0-1-1-1-2-1c0 0-2-1-4-1c-2-1-5-2-7-3c-2-1-5-2-7-3c-4-2-28-10-38-13c-2 0-4-1-5-2c-2 0-3-1-13-3c-3-1-7-3-9-3c-6-2-9-3-20-6c-5-1-14-4-19-5c-9-3-13-3-28-2c-20 2-27-3-32-21c-4-15-5-18-6-25c-1-3-1-6-1-6c-1 0-1-3-2-5c0-2-1-5-1-7c0-2-1-5-1-7c-1-3-1-6-2-8c0-2-1-6-2-10c-1-4-1-8-2-10c-1-5-4-25-5-31c0-2 0-5-1-8c-6-38-7-69-4-80c2-5 8-12 14-15c5-3 5-4 2-7c-1-2-4-4-5-6c-7-7-26-18-38-22c-3-1-6-2-7-2c-4-2-15-5-21-6c-4-1-9-1-11-2c-11-2-19-2-40-2c-21 0-24 0-35 2c-17 5-46 20-69 37c-18 13-25 19-45 37c-11 10-35 34-48 49c-7 8-14 16-17 19c-2 3-5 6-6 7c-1 1-3 4-4 5c-3 3-5 6-12 14c-2 2-4 6-6 8c-2 3-6 7-9 10c-5 6-5 6 0 8c1 1 5 3 8 5c3 1 5 3 6 3c0 0 3 1 6 3c6 3 10 4 25 11c9 4 11 5 11 6c0 1-10-1-16-4c-1-1-3-1-4-2c-2-1-5-2-7-3c-2-1-6-2-9-4c-3-1-7-3-9-4c-2-1-7-3-10-6c-5-3-6-3-11-3c-6 0-7-2-1-4c4-2 4-3 4-4c-1-3 2-8 8-14c5-6 5-7 0-6c-15 1-31 4-42 5c-2 1-6 2-9 2c-15 2-33 5-35 5c-3 1-5 1-19 4c-8 1-10 2-15 4c0 0-2 1-3 1c-7 3-19 11-18 12c1 0 2 0 4 0c13-3 41-4 56-3c15 2 31 5 42 7c8 2 25 7 28 8c0 1 4 2 7 3c5 2 7 3 21 9c23 11 50 29 64 42c6 5 3 6-3 0c-9-6-25-17-40-25c-8-5-22-12-28-15c-2 0-5-2-6-2c-7-3-9-4-17-6c-11-4-19-6-29-9c-2 0-4-1-6-1c-21-6-77-7-94-2c-3 0-6 3-7 6c0 1-1 3-2 5c-3 8-7 25-9 36c0 3 0 4 1 4c13 7 15 14 16 56c1 18 0 16 10 18c6 1 15 2 20 3c1 1 7 2 12 4c30 7 37 13 48 42c1 3 2 7 3 9c1 2 2 6 3 9c3 9 3 8 11 9c8 0 18 1 37 3c7 1 18 2 24 2c23 2 32 3 46 5c4 1 8 2 8 2c1 0 1 0 0 0c-1 2-15 1-26 0c-13-1-26-2-55-5c-17-1-28-2-29-3c-2 0-11-1-11 0c0 0 4 14 6 18c1 3 3 10 4 16c2 6 3 12 4 13c2 11 5 35 4 46c0 5-1 10-1 11l0 2 16 0c19 0 17 1 21-9c12-30 33-57 57-70c12-6 30-9 40-6c1 0 2 0 2-1c0-2-10-11-11-11c-1 0-2-1-2-1c-1-1-2-2-4-3c-8-4-10-9-11-26c-1-13 0-49 1-61c1-3 1-10 2-15c4-28 10-40 30-61c12-12 12-12 9-14c-2 0-5-1-7-2c-2-1-4-2-4-2c-1 0-37-20-41-22c-18-12-21-29-7-53c13-23 33-48 58-72c12-13 15-15 30-27c15-11 31-18 53-24c16-5 56-5 71 0c20 5 26 8 31 14c8 7 12 17 15 35c2 7 3 14 3 15c1 3 2 13 4 25c0 3 1 8 2 11c1 8 2 11 4 28c2 16 3 20 4 29c1 3 2 9 2 13c1 4 2 11 3 15c0 4 1 10 2 13c0 3 1 8 1 10c0 3 1 10 2 16l1 11 5 4c6 6 7 8 7 13c0 13-12 21-25 18c-4-1-6 2-12 18c-3 9-5 19-8 41c-4 31-5 73-2 125c1 12 2 26 2 32c0 13 0 12 10 14c4 0 9 1 11 1c4 1 4 1 5-1zM489 761c0 0-6-14-8-17c-1-2-2-2-4-1c-2 1-4 1-5 1c-3 0-3 1 1 6c2 3 5 6 6 8c3 4 8 6 10 3zM666 747c-1-7-1-16-2-21c-2-27-2-116 0-119c0 0 1-5 1-11c1-10 2-14 5-29c3-15 6-24 11-35c3-4 3-4-3-10c-8-7-8-7-15-6c-43 8-70 2-73-17c-1-4-1-4-8-5c-13-3-26-5-33-7c-4-1-8-2-9-2c-2-1-16-5-22-6c-1 0-3-1-4-2c-2 0-6-2-10-3c-4-1-9-3-12-4c-3-1-5-2-5-2c-1 0-22 22-26 28c-4 6-9 15-11 22c-1 3-2 7-2 8c-4 11-6 38-5 75c0 31 0 31 7 35c2 2 5 3 5 3c6 4 15 13 17 18c0 1 4 3 10 7c18 11 32 29 42 53c1 3 3 7 3 8c2 4 2 5 4 9c1 4 1 4 8 5c5 1 8 1 18 3c9 1 14 2 19 3c9 1 20 3 30 4c9 2 17 3 30 5c9 1 16 3 22 4c9 2 8 3 8-11zM848 748c-5-10-6-10-10-9c-4 1-4 1 4 10c10 9 11 9 6-1zM470 737c6-2 7-2 3-5c-2-2-17 0-17 2c0 2 6 5 7 4c1 0 4-1 7-1zM322 735c1-5 0-23-2-37c-2-17-3-18-4-9c-2 9-1 32 2 41c0 2 1 4 1 5c0 1 1 1 2 1c0 0 1 0 1-1zM831 734c5-2 6-4 4-7c-2-2-20-1-20 2c0 0 2 1 5 3c2 1 5 2 5 2c1 1 2 1 2 1c1-1 2-1 4-1zM573 732c-21-6-39-22-46-42c-1-3-2-5-3-6c-3-4-8-29-8-41c0-13 4-32 9-43c1-2 2-5 2-5c0-1 9-14 13-18c20-21 49-24 71-7c7 6 19 19 19 20c0 1 2 4 4 7c5 10 10 27 12 40c3 32-6 63-26 82c-3 3-13 10-14 10c-1 0-2 1-4 1c-7 4-21 5-29 2zM449 729c1 0 2-1 2-1c-1-1-8 0-8 1c0 1 3 1 6 0zM593 728c4-1 5-1 10-3c2-1 4-2 4-2c1 0 7-5 11-8c9-9 16-22 20-36c2-7 2-9 3-14c2-11 1-29-2-39c0-2-1-5-2-7c0-3-4-14-5-15c0 0-2-3-3-6c-11-20-31-34-49-34c-5 0-7 0-15 2c-15 5-29 19-38 40c-9 21-8 56 1 77c1 1 2 4 3 5c8 20 27 36 46 40c3 1 13 1 16 0zM805 724c4-2 1-2-4-2c-5 1-5 2-4 3c1 0 5 0 8-1zM1172 725c-19-3-43-43-33-56c4-5 8-6 37-9c12-2 28-3 37-5c3 0 7-1 10-1c10-1 26-3 34-4c4 0 10-1 12-1c3-1 8-1 11-2c4 0 9-1 12-1c2-1 7-1 9-1c11-1 37-5 38-6c2-1 18 0 20 2c7 5 8 29 2 45c-4 11-9 16-17 18c-1 0-4 1-7 1c-4 1-9 2-19 5c-6 1-32 6-40 7c-29 5-91 9-106 8zM1026 720c-25-2-26-2-39-5c-16-5-26-11-34-24c-3-4-5-7-5-7c0 0-1-3-3-6c-12-26-10-45 5-49c8-3 38 0 53 5c1 0 6 2 11 3c11 3 14 4 15 4c1 1 2 1 3 1c3 1 12 4 15 6c2 0 5 1 7 2c7 3 23 11 25 13c1 0 4 2 6 3c6 4 16 16 20 26c1 2 3 4 3 5c4 9-2 20-12 22c-4 1-60 2-70 1zM1220 717c22-2 33-3 40-4c4-1 11-2 15-2c5-1 13-2 19-3c13-3 14-3 17-4c1 0 7-1 11-2c27-5 31-7 34-22c7-29 3-38-12-34c-2 0-10 1-17 2c-8 1-18 2-22 3c-11 1-17 2-29 3c-9 1-24 3-35 5c-11 1-17 2-28 3c-7 0-15 1-18 2c-3 0-9 1-12 1c-4 1-8 1-11 2c-2 0-6 1-8 1c-18 1-21 3-21 10c0 2 0 4 1 5c0 1 1 3 2 5c6 15 16 27 23 29c4 2 36 1 51 0zM1089 713c10-2 11-3 12-7c2-8-6-22-17-31c-8-7-11-9-29-17c-6-2-20-8-27-10c-3-1-7-2-8-2c-3-2-18-5-30-8c-2 0-5-1-6-1c-1-1-2-1-3 0c0 0 2 7 4 11c0 1 3 10 5 17c0 1 1 4 2 5c2 8 5 25 6 34c1 8-1 7 20 8c6 1 12 1 12 2c2 0 54 0 59-1zM1167 712c-3-1-3-2-1-10c1-3 2-6 3-7c0-1 2-5 3-9c2-4 3-8 3-8c1-1 1-3 1-4c1-2 3-3 9-4c5 0 7 0 8 6c1 2 1 4 2 5c0 0 1 3 2 6c1 7 2 8 2 2c0-14 11-25 24-24c3 1 6 1 7 2c1 1 2 1 3-1c2-1 3-2 7-2c4-1 8-1 11-2c5-1 7 0 8 2c3 6-1 11-9 11c-2 0-4 0-4 1c0 0 2 0 5 0c5 0 6 1 6 6c0 4-2 6-6 7c-4 0-6 0-6 1c0 2 4 2 7 1c4-2 7 1 6 6c0 5-2 6-10 7c-3 0-8 0-10 1c-4 0-5 0-6-1l-2-2-1 1c-5 6-20 6-25 1l-3-2 1 2c0 4-1 5-7 6c-5 0-6 0-8-4c-1-5-7-3-9 2c-1 4-6 6-11 4zM994 708c0-2-1-7-3-18c-1-5-2-11-4-18c0-1-2-6-3-11c-1-5-3-11-4-13c-1-2-2-6-3-8c-1-5-2-5-15-5c-19-1-23 8-13 34c3 6 8 17 12 22c7 10 33 23 33 17zM1175 707c0-1 1-3 2-4c1-2 1-3 4-3c1 0 3 0 4 0c3-1 4-1 5 4c1 3 6 4 8 2c1-1 0-7-2-10c0-1-1-4-2-7c-1-3-2-8-3-11l-2-5-4 0c-5 1-5 1-8 9c-1 3-4 10-6 15c-4 12-4 13 0 12c2 0 3 0 4-2zM360 706c-3-1-5-2-7-1c-15 2-19-9-7-25c6-9 13-9 19-1c12 17 9 32-5 27zM1220 704c5-2 8-5 8-7c0-2-2-3-2-2c-2 3-10 4-13 1c-9-7 3-26 12-20c2 1 3 0 4-3c0-6-15-6-21 1c-8 8-7 25 0 29c6 2 7 2 12 1zM368 703c5-4-3-25-11-27c-6-2-17 13-15 20c1 6 3 7 10 6c4-1 5-1 8 1c4 2 6 2 8 0zM1252 700c3-1 4-3 3-5c-1-1-2-1-7-1l-7 1 1-2c0-1 0-3 0-5l0-2 5 0c6 0 7-1 7-4c0-2-1-2-6-2l-6-1 0-3c0-3 1-4 7-4c5 0 7-1 7-4l0-2-5 0c-2 0-7 0-10 1l-6 1 0 4c0 2-1 9-1 16l0 13 8 0c4 0 9-1 10-1zM1281 699c-11-3-14-20-6-33c7-12 25-12 31 0c1 2 2 1 3-5c0-5 0-5 2-6c10-2 11-1 10 10c0 4 0 12 0 17c0 11-1 13-7 14c-5 0-7-1-7-6c0-4-1-5-2-2c-3 8-14 13-24 11zM601 696c-12-3-21-14-21-29c0-7 2-7 11-6c7 1 8 2 9 7c1 12 7 12 7 0c1-10-1-12-8-13l-3-1 0-8c-1-10 0-11 5-11c5 0 6-1 6-7c0-6-1-9-4-9c-1 0-3 3-3 7c0 4-6 5-15 2c-7-2-1-22 9-27c9-5 23-1 29 9c4 7 4 27 0 33l-2 3 2 2c7 11 6 35-3 43c-4 4-12 6-19 5zM1292 695c14-4 17-32 3-35c-7-1-16 4-18 9c-8 17 0 30 15 26zM1223 693c3-2 4-2 5-2c3 2 3 2 3-5c0-8 0-8-2-6c-2 0-2 0-5-1c-7-3-14 6-10 13c2 4 3 4 9 1zM1180 694c0-1 0-2 1-4c0-1 1-3 2-5c0-1 1-3 1-3c1 0 4 12 3 12c0 1-7 0-7 0zM1324 692c-2-2-2-1-1-21c1-18 1-18 8-19c5 0 7 2 7 5c-1 1-1 7-1 12l-1 11 5-1c7-1 8 1 8 5c0 6-2 7-9 8c-4 1-9 1-11 1c-3 1-4 1-5-1zM614 691c12-7 14-33 3-43l-3-2 4-4c6-6 6-24-1-33c-9-11-30-5-30 8c0 2-1 3-1 4c-2 3 0 5 6 4c4 0 5 0 5-2c1-6 2-8 7-8c5 0 7 5 6 15c0 6-2 8-7 9c-3 1-3 1-4 4c-1 7 0 8 4 8c6 1 8 6 8 16c0 8-1 12-5 13c-6 1-8-2-10-10l-1-4-4-1c-6-1-6-1-6 5c0 10 6 18 14 21c3 1 12 1 15 0zM1317 689c0-2 1-9 1-17l1-14-3 0c-4 0-4 1-5 17c0 8-1 14-1 15c0 2 0 2 3 2c3 0 4 0 4-3zM560 690c-27-2-26-2-25-12c1-10 4-20 11-29c5-6 6-8 9-11c2-2 3-4 5-10c1-3 1-9 0-11c-3-5-6-3-6 6c-1 7-2 7-10 6c-9-1-10-2-9-11c0-3 1-7 1-7c1-1 1-3 2-4c8-17 30-17 39 1c6 14 3 32-9 46c-12 15-12 14-2 15c14 1 13 1 14 13c0 11 0 10-20 8zM1284 689c-6-5-2-22 6-22c5 0 6 2 6 9c0 11-6 17-12 13zM1339 689c6-1 6-1 7-3c0-4-1-4-8-3l-5 0 0-5c2-22 2-23-3-22c-3 1-3 0-4 19l0 15 3 0c2 0 7-1 10-1zM576 687c0-3 0-12-1-13c0 0-2 0-3 0c-9 0-18-2-18-4c0-2 3-8 8-15c14-17 18-32 11-46c-8-16-31-13-33 5c-2 10-1 12 7 11c2 0 2 0 3-4c1-11 9-15 13-7c3 8 1 19-6 28c-2 3-5 7-7 9c-7 9-12 23-11 31c0 2 0 2 17 4c5 0 11 1 13 1c3 0 5 1 5 1c1 0 1-1 2-1zM717 687c-2 0-16-2-28-3c-12-2-11-2-13-4c-1-2-1-4-1-21c0-30 1-31 14-29c16 2 20 2 24 3c3 0 7 1 11 1c24 4 24 4 25 8c2 7 1 11-6 16c-8 7-16 18-17 25c-1 4-4 5-9 4zM371 684c-5-5 0-19 6-17c5 2 7 9 4 14c-3 5-7 7-10 3zM1291 684c4-5 3-14-1-14c-3 0-5 3-5 9c0 7 3 10 6 5zM724 676c4-9 9-14 16-20c5-5 6-5 6-9c0-5-1-5-12-7c-16-2-22-3-26-3c-2-1-8-1-14-2c-5-1-10-1-11-2c-1 0-2 1-2 2c-1 2-2 35-2 40l1 3 5 1c3 0 9 1 13 1c8 1 16 2 19 3c3 1 3 0 7-7zM378 681c2-2 2-7 0-10l-1-1-2 1c-3 3-4 8-2 11c1 2 3 1 5-1zM335 681c-6-5-5-16 0-17c6-1 11 9 8 16c-2 3-5 3-8 1zM340 675c1-5-2-9-5-8c-2 2-2 8 1 11c3 3 4 2 4-3zM1417 678c4-1 10-3 14-4c8-2 25-9 28-11c1-1 1-8-2-18c0-1-1-5-2-9c-1-6-4-16-5-19c-1-1-1-2-1-3c-1-2-4-8-7-14c-3-5-3-5-11 2c-28 26-33 35-36 62c-1 15 5 18 22 14zM360 670c-4-4-2-16 3-19c5-3 10 5 9 12c-2 8-8 11-12 7zM347 670c-8-5-7-21 1-21c8 0 11 17 4 21c-3 2-2 2-5 0zM368 667c2-5 1-14-3-14c-3 0-6 11-3 15c1 2 4 1 6-1zM352 666c2-3 2-10-1-12c-3-4-6-3-6 2c-2 7 4 15 7 10zM1467 658c1-1 3-3 4-5l1-3-1-7c-2-11-5-20-6-24c-1-1-2-4-2-7c-2-5-10-21-11-22c-1-1-2-1-5 0c-4 2-5 3-1 8c4 5 10 22 13 34c1 6 2 12 3 13c0 2 0 4 0 5c0 2 2 9 3 9c0 0 1 0 2-1zM308 650c0-2-1-3-1-4c-1 0-2-4-3-7c-3-12-7-21-15-42c-6-14-11-20-22-24c-3-1-6-2-6-2c-2-1-17-4-23-5c-2-1-6-2-8-2c-3-1-7-2-10-3c-3 0-6-1-7-1c-1 0-1 1-2 4c-2 10-5 13-14 14c-5 0-6 1-6 2c0 2 3 17 4 23c0 2 1 6 1 9c4 18 6 21 24 24c4 1 10 2 11 2c2 1 4 1 6 1c1 1 3 1 5 1c9 2 15 4 21 5c4 0 8 1 10 1c2 1 5 2 7 2c30 6 29 6 28 2zM1170 641c5-1 12-2 16-2c36-3 47-4 63-7c3 0 9-1 14-2c10-1 30-4 35-5c1 0 4 0 6-1c1 0 8-1 15-2c7-1 14-2 17-3c2-1 5-1 7-2c13-3 18-9 18-19c0-19-23-53-53-76c-5-4-10-8-11-9c-4-3-9-6-18-12c-7-4-9-5-15-9c-4-3-37-19-37-19c-1 0-2 0-3-1c-7-3-8-3-17-7c-5-2-10-4-12-4c-1-1-2-1-9 0c-8 1-9 2-3 3c4 1 4 1 12 5c12 5 18 12 26 31c7 17 5 19-14 21c-4 1-10 1-13 2c-3 0-7 1-10 1c-7 0-33 3-41 4c-9 1-17 2-27 3c-8 1-21 2-31 4c-12 1-18 0-34-7c-2-1-6-3-9-4c-2-1-6-2-7-3c-4-1-5-2-12-4c-4-2-7-3-8-4c-1 0-5-2-8-3c-3-1-7-2-8-2c-2-1-3-2-7-3c-1-1-4-2-7-3c-3 0-6-2-8-2c-2-1-6-3-10-4c-13-5-15-9-7-14c4-3 4-4 1-3c-2 0-8 1-14 1c-6 1-12 2-14 2c-13 1-19 2-24 3c-5 0-7 0-34 4c-9 1-19 2-22 2c-10 2-14 2-24 4c-28 3-32 4-26 5c2 1 5 2 7 2c2 1 8 3 15 4c6 2 12 4 14 4c2 1 6 2 10 3c7 2 10 3 12 4c1 0 5 2 10 3c4 1 9 3 11 4c1 0 7 2 12 4c5 2 10 4 12 4c1 1 4 2 8 3c3 1 6 3 7 3c2 1 5 2 9 4c3 1 8 3 11 4c3 2 6 3 6 3c0 0 4 2 9 4c5 2 9 4 9 4c1 0 33 17 37 20c1 1 4 2 7 4c10 5 30 18 45 29c14 11 28 20 30 20c1 0 3 1 5 2c7 4 17 7 29 9c2 0 5 0 5 1c1 0 39-1 47-1zM924 632c-8-8-26-23-42-35c-6-4-21-14-35-22c-7-4-36-19-41-21c-2-1-6-2-8-4c-3-1-8-3-11-4c-3-1-7-3-8-3c-1-1-5-2-8-3c-3-1-7-3-9-3c-1-1-3-2-4-2c-1-1-6-2-11-4c-5-2-10-4-12-5c-1 0-3-1-3-1c-1 0-2 0-2-1c0-1 7 0 15 3c2 0 6 1 9 2c2 1 6 2 9 3c3 1 7 3 10 4c2 0 5 1 6 2c1 0 5 2 10 4c4 1 11 4 14 6c3 1 6 2 6 2c1 0 14 7 18 9c12 6 22 11 34 18c2 2 5 3 5 3c1 0 1 1 1 1c0 0 2 2 4 3c23 15 62 49 59 53c0 0-3-2-6-5zM791 633c0 0-6-1-12-1c-6-1-13-2-15-2c-3 0-8-1-12-1c-3-1-12-2-18-3c-7-1-15-2-19-2c-4 0-9-1-12-1c-2-1-8-2-13-2c-14-2-15-3-9-26c0-3 1-6 2-8c3-17 3-17 31-13c14 3 25 4 45 6c6 1 12 2 15 2c2 0 11 2 19 3c8 1 15 2 15 2c2 1 4 5 3 7c0 1-1 2-1 4c-3 16-7 31-7 32c-1 3-7 5-12 3zM232 630c-2-7-6-24-8-38c-1-6-1-18 0-20c1-3 2-1 3 3c1 11 2 20 2 23c1 2 1 6 2 8c0 3 1 8 2 12c2 10 2 14 1 14c0 0-1-1-2-2zM799 629c0-1 2-7 4-17c1-4 1-8 2-9c3-13 3-12-3-13c-4-1-14-2-28-3c-3-1-7-2-10-2c-2 0-11-1-18-2c-20-3-24-3-29-4c-13-2-17-2-22-3l-6 0 0 2c-1 2-2 7-3 10c0 2-2 10-4 19c-1 8-1 9 4 9c2 0 7 1 9 1c12 2 30 4 46 6c6 1 13 1 14 2c2 0 5 1 7 1c1 0 4 0 5 0c2 1 6 1 11 2c4 0 9 1 12 1c4 1 8 1 9 0zM1207 624c-6-1-8-1-18-3c-9-2-15-3-20-6c-1 0-5-2-9-3c-45-19-55-55-21-72c14-7 39-11 57-8c13 2 25 4 31 6c11 4 25 11 31 15c2 1 5 4 7 5c5 4 10 11 14 18c8 19-5 39-32 45c-3 1-7 2-8 2c-4 1-25 2-32 1zM777 621c-2 0-5-1-5 0c-1 0-3 0-5-1c-3 0-18-2-29-3c-14-2-15-2-14-8c1-6 1-5-4-4c-4 1-4 2-5 5c-2 3-8 4-10 1c-1-1-1-1-2 0c-3 2-14 0-15-4c-1-4 2-8 6-6c3 1 5 0 2-1c-1 0-2-2-3-3c-4-9 8-18 16-12c1 1 2 1 3 1c3-1 12 0 15 2c2 2 2 2 4 0c1-1 13-1 14 1c0 0 3 1 5 1c2 0 6 0 8 0c1 1 6 1 10 2c5 0 9 1 10 1c1 1 2 1 4 1c3-1 12 1 15 3c3 4 2 13-2 19c-4 6-9 7-18 5zM1240 619c3-1 5-2 6-2c0 0 3-1 6-2c21-7 30-25 21-42c-5-8-26-24-39-28c-2 0-4-1-4-1c-7-3-19-6-35-8c-8-1-24 0-33 1c-42 6-52 35-20 59c4 3 16 11 20 12c2 1 4 2 6 2c9 4 27 9 38 10c6 0 30-1 34-1zM788 619c10-5 12-19 2-22c-8-2-8-2-11 9c-1 2-2 5-2 6c-2 5-2 6 0 7c3 1 9 1 11 0zM772 616c0-1-1-1-3-2c-6-1-5-6 1-7c5 0 5-2 0-3c-3-1-3-2-2-4c0-2 3-2 6-1c2 1 2 1 3 0c1-3 1-3-3-4c-2 0-5-1-6-1c-3 0-4 1-8 21c-1 1 1 1 4 2c7 1 8 1 8-1zM781 616c0-2 4-15 5-15c5-3 7 6 3 11c-1 3-7 5-8 4zM756 615c0-2 0-2-4-3c-4-1-5-3-3-5c1-1 2-2 4-1c2 0 5-1 5-3c0-1-2-1-5-1c-2 0-3-1-2-4c1-2 1-2 5-1l5 0-1-2c0-2 0-2-5-3c-7 0-7 0-8 5c0 1 0 3-1 4c0 1-2 7-3 11c-1 2 0 2 5 3c4 1 7 1 8 0zM738 613c1-1 1-3-1-3c-4 0-6-1-5-4c0-3 0-3 5-3c5 0 6-2 0-3c-3 0-3-1-2-4c1-2 1-2 4-2c3 1 4 1 5 0c2-2 0-4-6-4c-6 0-6-1-8 8c-5 15-5 15 6 16c1 0 1 0 2-1zM788 610c1-3 1-6 0-7c-1 0-4 8-4 10c0 2 2 0 4-3zM775 610c0 0-2 0-3 0c-4 0-5 1-1 2c2 0 4 0 4-2zM713 607c1-4 2-4 4-4c9 0 14-11 6-14c-7-3-10-1-11 6c-1 4-2 7-3 11c-2 4-2 5 1 4c2 0 2-1 3-3zM1174 609c-1 0-6-6-7-8c-3-5-2-11 2-19c4-9 4-12-2-15c-6-3-8-2-5 3c3 4 2 5-6 6c-10 2-11 2-15-6c-4-7-1-14 6-15c1 0 4-1 7-2c9-2 15-1 27 4c2 1 5 4 8 7c7 8 7 11 2 22c-3 6-4 8-2 7c1 0 4-1 7-1c3-1 7-1 9-2c5-1 6 0 11 5c6 7 5 8-8 10c-8 1-14 2-22 3c-6 1-10 2-12 1zM702 608c5-3 5-9 0-12c-4-3-3-6 1-6c5 0 7-2 2-4c-8-3-14 9-6 13c3 2 2 7-3 6c-6-2-5-2-5 0c0 4 7 5 11 3zM741 607c0-1-4-2-5-1c-1 1 0 2 3 2c1 0 2 0 2-1zM1186 604c8-1 15-2 22-3c8-1 8-1 5-5l-3-3-6 1c-3 0-8 1-10 1c-12 2-13 1-7-11c5-9 5-9 2-14c-3-6-8-9-17-13c-3-1-19-1-20 0c-1 1-2 1-3 1c-5 0-7 6-4 12l2 4 3-1c7-1 9-1 8-2c0 0 0-2-1-3c-3-7 9-8 15-1c5 4 5 8 0 17c-4 9-4 14 1 19c3 4 2 3 13 1zM1231 600c-8-1-13-4-18-10c-5-5-3-7 9-8l5-1 3 3c7 6 13 5 9 0c-3-5-6-6-13-5l-5 0-4-4c-2-2-4-4-3-5c0-2 0-2 5-4c2-1 3-1 2-3c-2-3-11-6-10-4c1 6 1 6-1 7c-6 2-14 2-17 0c-6-6-6-13 1-16c18-10 48-1 48 15c0 2 0 3 1 3c14 5 24 20 17 26c-5 5-19 8-29 6zM716 599c0-1 0-2 0-2c0-1 0-2 1-3c0-3 5-2 5 1c0 2-5 5-6 4zM1249 596c6-2 7-2 8-4c5-6-4-18-17-21c-4-1-4-2-2-4c3-5-4-12-14-16c0 0-2-1-3-1c-3-1-14-1-17 0c-1 0-3 1-4 1c-3 0-8 5-8 6c0 4 4 8 7 7c2 0 4-1 5-1c3 0 4-1 3-3c-2-2 0-5 4-5c10 0 19 11 11 14c-7 2-4 6 5 6c7 0 13 3 16 9c5 7-4 10-13 4c-5-3-9-4-13-3c-5 2 2 7 12 11c3 1 16 1 20 0zM709 593c0-1 0-1-1-1c-1 1-2 1-3 1l-2 0 2 2c3 1 4 1 4-2zM200 570c3-1 4-5 4-11c0-3-1-16-1-29c-1-29-2-32-7-38c-4-4-4-3-6 7c-1 12-1 68 0 70c1 2 7 2 10 1zM488 561c-16-3-19-4-27-7c-7-3-7-17 0-23c3-2 13-2 21 0c2 0 7 1 11 2c4 1 8 2 10 2c2 1 3 1 4 1c0 1 1 1 1 1c3 0 8 7 8 11c0 14-6 16-28 13zM326 560c-7-1-15-2-18-3c-1 0-7-1-12-3c-11-2-14-3-24-7c-67-27-65-75 4-83c8-1 34 0 42 1c7 1 28 5 32 7c33 12 52 25 60 41c6 13 1 29-12 35c-1 1-3 2-4 3c-2 1-11 4-17 6c-10 2-12 3-30 3c-10 0-19 0-21 0zM362 556c7-1 13-2 15-3c1-1 2-1 3-1c8 0 24-11 28-19c8-17-12-40-46-53c-3-1-6-2-7-3c-4-1-9-3-24-6c-16-4-52-5-63-2c-2 0-5 1-7 1c-40 10-46 36-13 60c5 4 18 11 25 13c2 1 5 2 6 3c3 1 15 4 26 7c2 0 5 1 6 1c2 1 7 1 13 2c5 0 11 1 12 1c4 0 16 0 26-1zM507 555c5-1 4-10-2-13c-3-1-23-5-33-6c-13-2-15 12-3 14c24 5 34 7 38 5zM654 555c-4 0-11-1-16-2c-10-1-12-1-22-3c-3-1-7-1-11-2c-6-1-17-3-29-5c-2 0-5-1-8-2c-2 0-5-1-7-1c-3-1-43-10-45-11c-1-1-5-2-9-3c-10-3-18-5-20-6c-1-1-5-2-9-3c-7-3-12-6-14-7c-2-2 2-2 6 0c1 1 6 2 9 3c3 1 7 2 7 2c4 2 7 3 18 6c21 6 31 8 34 8c1 0 2 1 2 1c1 1 2 1 3 1c2 0 4 1 6 1c3 1 15 4 21 5c2 0 5 1 7 1c8 2 12 3 33 7c2 0 5 1 7 1c2 0 12 2 22 4c10 1 19 3 20 3c1 0 2 1 2 1c0 1 1 1 2 1c1 0 1 0 1 1c0 1-2 1-10-1zM327 551c-5-1-11-1-12-2c-14-2-25-5-26-5c-1-1-5-2-9-4c-10-3-11-4-19-8c-15-9-17-11-18-13c0-1-1-3-2-4c-12-14-4-30 17-37c14-5 41-7 55-5c30 5 55 13 67 22c9 8 12 10 14 13c7 9 8 20 2 27c-10 12-39 19-69 16zM360 547c1-1 4-1 5-1c4 0 3-1-1-2c-3-1-5-2-6-2c-2-2-2-2-3-1c-1 2-18-1-20-3c-1-2-1-2-2-1c-1 3-17 0-19-3c-1-1-1-1-3 0c-2 0-4 1-5 0c-8-1-14-3-15-3c-1-1 0-8 2-14c2-6 2-8-1-5c-1 2-6 4-9 4c-3 0-3 0-5 8c-2 6-13 6-11 0c0-3-1-4-2-2c0 1-2 1-3 2c-3 1-3 3 1 5c10 5 20 9 33 13c12 3 22 5 32 5c10 1 29 1 32 0zM377 540c9-4 15-24 10-33c-3-4-5-4-13-5c-5-1-5-2-11 22c0 2-1 5-2 7c-2 7-2 7 0 9c4 2 10 2 16 0zM386 538c1 0 2-1 2-1c1 0 6-5 8-8c1-4 1-10-1-14c-3-6-3-5-3 1c0 8-3 15-7 21c-3 3-2 5 1 1zM355 536c1-3-1-4-4-4c-4 0-6-1-6-3c1-9 2-9 8-8c3 0 3 0 4-2c0-1 1-3 1-3c-2-1-4-2-6-2c-3 0-3 0-2-5c1-5 2-5 6-4c5 1 6 1 7-2c2-3 1-4-11-5l-4-1-1 3c-1 2-2 6-3 9c-2 8-4 15-4 16c-4 8-3 12 2 12c2 0 3 0 4 1c4 1 8 1 9-2zM367 535c0-1 1-7 4-16c0-1 1-4 1-6c2-5 1-5 5-5c11 2 4 28-8 28c-1 0-2-1-2-1zM332 533c1-3 1-4-7-5c-3-1-3-1-1-7c1-5 2-5 6-4c4 1 6 0 6-4c0-2-1-2-4-2c-6-1-5-1-4-6c2-5 1-5 6-4c2 0 4 1 5 1c1 0 3-4 3-5c-1-1-4-2-12-3c-5-1-5 0-9 17c-1 4-3 9-3 10c-3 12-3 11 2 13c7 1 11 1 12-1zM309 531c3-3 2-6-1-6c-2-1-4-1-5-1c-3-1-3-1-2-6c2-6 2-6 7-5c4 1 5 1 6-2c0-2-3-4-6-4c-2 0-4-2-3-3c1-1 1-3 2-4l1-3 5 0c5 1 5 1 6-1c2-3 1-4-7-6c-9-1-8-2-13 16c-1 6-3 12-4 14c-2 7-2 9 1 9c1 0 3 1 5 1c2 1 4 1 5 1c0 0 1 1 1 1c1 0 1-1 2-1zM374 530c5-4 7-15 4-17c-2-2-2-2-3 2c-1 2-3 12-4 15c-1 2 0 2 3 0zM359 527c1-2 2-5 2-7c1-3 2-8 3-9c1-3 1-3-1-2c-1 0-3 0-5 0c-7-2-8 1-2 3c7 4 5 13-3 12c-4 0-5 1-5 3c0 1 5 3 9 3c1 0 2-1 2-3zM1084 527c0 0 0-2 0-4c0-23 7-32 28-36c21-4 68-6 80-3c9 1 18 15 18 26c0 3 1 4 4 3c7-2-6-29-16-33c-1-1-4-2-4-2c-8-3-38-3-60 0c-3 0-8 1-12 1c-13 2-28 5-30 6c0 1-1 1-1 1c-2 0-8 5-10 8c-4 8-5 13-6 25c-1 3-1 7-1 7c-2 2 6 3 10 1zM338 522c0-3 1-7 2-9c2-9 3-8-3-9c-5 0-6 0-6 2c0 1 1 1 3 2c4 1 5 2 4 7c-1 5-2 6-7 5c-4 0-4 0-4 2c-1 2 0 3 2 3c1 0 2 1 3 1c3 2 4 1 6-4zM1070 519c2-29 12-39 46-44c23-3 28-3 46-4c17 0 18-1 11-2c-3-1-7-2-9-2c-2-1-6-2-8-2c-3 0-6-1-8-1c-27-6-60-7-92-3c-13 1-19 2-24 3c-3 0-8 1-13 1c-18 3-19 4-5 5c12 1 14 1 30 5c6 2 12 3 14 3c2 0 3 1 4 1c0 1 1 1 1 1c3 0 11 4 11 5c-1 1-4 1-6 0c-4-1-9-3-17-4c-4-1-9-2-11-3c-21-5-43-7-49-5c-5 1-19 9-23 12c-3 2-3 2 7 6c4 2 8 3 9 3c1 1 2 1 3 2c1 0 3 1 4 1c1 1 4 2 7 3c2 0 6 2 7 2c2 1 7 3 10 4c4 2 10 4 12 5c3 1 5 2 6 2c0 0 4 1 8 3c4 2 10 4 12 5c2 1 5 2 8 3c9 4 9 5 9-5zM1100 526c3-1 8-1 13-2c4 0 10-1 13-1c7-1 25-3 32-4c6 0 15-1 23-2c3-1 8-1 12-2c6-1 7-1 5-3c-2-1-1-2 3-2c3 1 4 1 3-1c0 0-1-2-1-4c-2-6-7-15-9-14c0 1 0 2 1 4c2 5 2 12 1 14c-1 1-4 1-18 3c-6 0-13 1-17 1c-3 0-10 1-14 2c-4 0-12 1-18 1c-6 1-17 2-23 3c-16 1-15 1-15 4c0 4 0 4 9 3zM276 519l2-6 5-1c6 0 10-4 12-10c3-10 0-14-11-16c-5 0-5-1-8 11c-1 5-3 12-4 17c-3 9-3 10-1 11c3 1 3 1 5-6zM705 523c7-6 5-14-4-19c-11-6-17-14-16-21c1-7-1-16-4-22c-3-8-5-9-14-13c-6-3-41 0-54 4c-14 4-20 15-17 37c2 14 6 18 20 22c6 1 25 1 32 0c3-1 7-1 9-2c2 0 6-1 9-1c5-1 7 0 11 3c3 4 12 12 14 13c4 2 5 2 8 1c2 0 4-1 6-2zM315 520c1-2 1-4 2-4c0-1 0-2 1-4c0-1 1-5 1-7c2-4 1-6 0-4c0 0-2 1-5 0c-6 0-7 2-2 4c4 1 5 2 4 6c0 4-3 7-5 6c-5-1-6-1-7 1c-1 2 0 3 5 4c2 0 3 0 3 1c1 1 2 0 3-3zM263 520c5-5 6-14 0-21c-5-5-4-10 1-10c2 0 3 0 4 1c2 3 5-2 3-5c-1-3-9-4-13-1c-6 6-6 14 0 21c6 7 1 14-6 9c-4-2-4-2-5 1l-1 3 2 2c4 3 11 3 15 0zM1101 513c2 0 9-1 14-1c5-1 13-2 17-2c4 0 10-1 14-1c5-1 42-4 44-4c2 0-2-13-4-15c-5-4-74 2-85 8c-7 3-12 17-6 16c0 0 3 0 6-1zM257 513c2-2 1-4-2-7c-5-5-6-14-3-20c2-3 1-3-4 0c-5 3-6 5-8 8c-3 7 1 23 5 18c3-4 3-4 8 0c3 2 2 2 4 1zM281 506c-1-1 0-9 2-12c2-3 6-1 7 2c1 6-5 12-9 10zM272 504c0-1 0-4 1-8c2-6 2-10 1-5c-2 4-4 4-7 3c-5-4-6-1-1 4c1 1 2 3 2 3c0 0 1 2 1 3c1 2 3 2 3 0zM287 501c1-3 0-5-1-5c-1 0-2 3-2 5c0 2 2 2 3 0zM378 498c0-1-16-9-21-11c-3 0-6-1-6-2c-16-7-53-11-71-8c-14 2-14 2-10 4c2 0 3 1 4 3c2 2 2 3 4 0c3-3 17 0 20 6l1 3 1-2c2-3 5-5 7-5c0 1 4 1 7 2c4 0 7 1 8 2c1 1 2 1 3 1c4-1 16 1 18 3c2 1 3 1 4 0c1 0 4 0 12 2c1 0 3 0 4 0c1 0 2 1 2 1c1 1 13 2 13 1zM779 494c1 0 12-2 23-3c19-2 23-2 33-4c4-1 40-6 53-7c3 0 9-1 15-2c5 0 14-1 20-2c6-1 13-2 16-2c4 0 10-1 14-1c24-3 25-3 31-6c3-1 6-2 7-3c3-1 19-5 21-5c3 0 4-1 2-3c-5-4-7-7-10-10c-1-2-3-3-3-4c-1 0-6-12-7-15c-1-2-1-4-2-6c-2-7-1-28 2-34c6-15 19-30 26-30c1 0 2 0 2-1c2-2 15-2 22-1c15 3 25 11 35 27c10 17 9 46-2 63c-2 3-4 6-4 6c0 0 10 0 22 0c21 0 25 1 45 4c15 2 45 1 49-2c2-1 3-4 1-8c0-1-1-3-1-4c-7-17-38-79-50-99c0-2-2-5-3-7c-2-4-5-6-17-13c-11-7-35-18-38-18c-1 0-2 0-2 0c-1-1-15-5-28-8c-13-3-45-4-55-1c-18 4-27 11-31 25c-2 10-4 12-12 11c-18-3-22-4-42-6c-31-2-73 1-103 8c-1 0-4 1-6 1c-4 2-15 5-17 6c-1 0-3 1-5 2c-7 2-10 3-14 5c-3 1-6 3-8 3c-1 1-4 2-5 3c-1 1-4 2-7 3c-2 2-5 4-7 5c-2 1-3 2-4 2c-1 0-13 9-13 10c0 1 0 3 0 4c1 6 2 12 4 24c2 12 3 14 4 22c1 2 2 6 2 9c4 18 5 27 6 30c1 1 1 4 2 6c3 17 7 25 14 27c3 1 21 0 25-1zM698 490c-1-3-3-19-5-31c-1-8-2-13-3-21c0-2-1-9-2-15c-4-26-5-31-6-34c0-2-1-7-1-10c-1-7-2-18-4-29c-1-4-2-9-2-12c-3-18-4-25-6-31c0-2-1-4-1-5c0-2-1-3-1-4c-1-1-1-3-2-4c-2-8-9-16-16-19c-15-7-53-12-74-8c-24 4-30 5-31 10c-2 5-3 6-3 8c-1 0-2 4-3 8c-2 4-3 8-3 9c-2 4-3 8-4 12c-1 2-2 5-3 7c-2 4-3 8-5 15c0 3-2 8-3 12c-1 4-3 10-4 14c-1 3-2 7-2 8c-1 1-1 3-2 5c-1 5-4 18-5 20c0 2-2 7-3 12c-1 5-2 10-2 10c0 1-3 15-5 20c0 3-4 22-5 24c0 1 2 2 4 3c2 0 5 1 5 2c3 1 13 4 16 5c1 0 5 1 9 2c3 1 9 3 13 4c4 1 9 2 12 3c13 3 25 6 35 7c2 0 2 0 2-8c0-22 7-30 27-36c13-3 49-4 57-2c13 5 19 17 20 36c0 10 1 11 2 13c3 2 4 3 4 0zM842 477c-42-5-64-56-41-91c14-21 41-30 60-22c22 8 33 20 39 42c2 6 2 23 0 30c-7 27-32 44-58 41zM856 472c12-3 19-7 26-14c38-40-5-109-54-88c-2 1-3 1-4 1c-1 0-11 8-14 11c-16 19-18 48-3 69c11 16 33 25 49 21zM487 455c0-2 1-5 1-7c1-2 2-7 3-12c1-10 3-15 3-17c1-1 1-2 1-3c0-2 1-5 2-7c1-3 2-7 2-10c1-3 1-6 2-7c0-2 2-8 3-14c3-13 4-16 6-20c0-1 1-5 2-9c2-6 4-12 5-14c0-1 1-4 2-8c3-8 3-8 5-14c1-1 2-5 3-8c1-4 2-8 3-9c0-1 2-5 3-9c1-3 3-7 3-8c2-2 0-2-4 1c-11 5-12 6-15 14c-1 4-3 8-3 9c-3 5-5 11-6 15c-1 2-1 5-2 6c-2 4-2 5-4 13c-2 4-3 8-3 9c-1 2-4 12-6 17c-1 4-3 11-9 28c-1 4-3 11-4 15c-1 4-2 10-3 12c-1 3-2 10-4 15c-1 5-2 11-3 13c-2 6-1 7 3 9c2 1 5 2 6 2c4 2 6 3 6 3c1 0 1-2 2-5zM1043 455c7-1 15-2 17-2c13 0 24-33 19-55c-4-15-19-34-26-34c0 0-1-1-2-1c-7-4-21-4-27-2c-2 1-4 2-4 2c-2 0-10 6-12 9c-5 5-9 14-11 24c-3 11 1 31 8 43c7 9 18 18 23 17c1 0 7-1 15-1zM833 453c-29-14-27-57 3-68c5-2 18-1 22 1c0 1 2 1 5 2c16 5 22 36 12 53c-9 14-28 19-42 12zM463 447c0-1 1-3 1-4c1-1 2-8 4-15c3-13 4-17 5-21c1-1 2-6 3-10c2-5 3-10 3-10c1-1 2-7 4-13c2-6 3-11 4-12c0-1 1-3 2-6c1-5 6-18 9-29c2-4 4-12 6-17c2-4 4-10 5-12c1-2 2-4 2-4c-2-2-38 31-50 45c-2 3-5 6-6 7c-1 2-3 4-4 6c-2 2-3 4-4 4c-3 3-19 27-19 28c0 1-2 2-3 4c-2 3-3 5-6 13c0 1-1 2-1 3c-3 7 0 19 6 24c4 3 15 9 21 13c4 2 8 4 11 6c6 3 7 3 7 0zM1225 448c2-2 4-3 15-5c24-4 28-9 27-28c-1-19-6-24-31-24c-11 1-24 2-28 4c-3 1-2 7 2 25c0 2 0 4 0 6c0 4 6 17 11 22c1 2 1 2 4 0zM1028 444c-15-5-26-25-23-43c4-19 20-30 38-24c3 1 6 3 3 3c-4 0-9 9-8 14c3 13 21 11 21-2c0-6 1-5 2 2c1 3 2 7 3 8c4 17-3 35-16 41c-5 2-15 3-20 1zM1372 438c-4-2-4-8 0-18c1-1 2-4 3-6c1-5 3-11 4-13c1-1 2-5 3-9c2-4 3-8 3-8c3-7 3-9 1-14c-1-2-3-7-4-11c-4-11-3-10-9-9c-10 2-14 7-15 20c-2 16-11 25-31 29c-5 0-13-3-15-6c-1-3-6-17-9-25c-6-19-11-31-13-37c-5-12-4-14 6-14c13 0 18-3 21-14c2-8 4-12 10-17c4-4 13-9 21-11l4-1 0-3c0-4 3-9 6-8c6 0 8 4 14 20c1 4 3 7 3 8c0 0 1 1 1 2c0 1 0 2 0 2c1 0 1 1 1 3c1 1 3 8 7 18c1 4 6 19 9 26c1 4 3 8 3 8c1 0 3-4 7-17c2-4 4-10 5-12c2-5 7-18 10-29c1-4 3-9 4-10c1-2 2-6 3-9c3-8 5-11 10-11c4 0 8 6 7 10c-1 2 2 4 6 4c3 0 14 7 19 11c4 3 5 5 7 11c4 13 5 13 9 16c4 3 5 3 13 3c12 1 12 1 6 19c-2 5-6 15-8 20c-1 5-3 10-4 11c0 2-5 16-6 19c-3 9-7 12-16 12c-16 0-31-12-33-27c-1-12-3-16-9-19c-8-4-10-4-12 0c0 2-1 5-2 6c-3 7-6 16-6 18c0 1 1 5 2 8c4 12 10 27 11 30c7 16 7 26-2 25c-5 0-9-5-14-22c-1-4-2-7-3-8c-1-4-2-5-2-6c-1-3-2-2-4 4c-3 10-4 11-5 14c-1 2-2 6-3 9c-3 9-7 12-14 8zM1380 431c1-2 2-5 3-7c0-1 1-3 2-5c0-2 2-6 3-10c1-4 3-7 3-8c1-1 1-2 1-3c3-6 9-24 11-30c1-5 3-10 4-11c0-1 2-5 3-8c2-6 4-12 6-16c0-1 1-5 3-8c1-3 2-7 2-7c1-1 2-5 4-10c1-4 3-11 5-15c1-4 3-9 4-12c1-2 2-6 3-8c1-2 0-3-1-4c-2-2-4 0-6 6c-1 3-2 6-3 7c-1 3-5 13-6 16c-1 3-1 4-3 8c0 1-1 5-3 9c-5 13-7 21-10 27c-1 3-4 10-5 16c-10 29-10 28-12 33c-1 2-2 6-4 9c-1 3-3 10-5 15c-2 4-4 10-4 12c-3 8 2 11 5 4zM1419 434c1-1-3-15-5-20c-1-1-2-4-3-8c-2-4-3-8-3-9c-1-1-1-3-2-4c-1-1-2-4-2-6c-2-6-6 0-4 7c1 4 4 12 5 14c0 0 1 1 1 3c0 2 5 16 6 17c1 1 1 2 1 3c0 3 4 5 6 3zM1204 412c0-3-1-6-1-8c0-3-1-3-2 0c-1 4-1 5 1 9c3 6 4 6 2-1zM869 410c9-8 0-24-12-19c-7 3-9 10-5 16c3 6 12 7 17 3zM186 406c1-2-1-16-4-32c-1-1-2-6-3-10c-5-25-14-42-26-51c-6-4-35-19-42-21c-1 0-4-1-6-2c-2-1-6-3-10-4c-7-3-8-3-12-5c-14-5-19-6-21-3c-2 5-1 24 2 39c0 2 1 6 1 8c2 9 4 21 5 25c1 2 2 6 2 8c6 20 16 34 26 34c1 0 2 0 2 0c0 1 1 1 3 1c1 0 3 1 6 2c3 1 16 3 23 4c1 0 6 1 10 2c23 4 42 6 44 5zM195 402c3-4 3-12 1-26c-1-2-1-7-2-11c-1-4-2-10-3-13c-1-3-2-6-2-7c-3-11-4-15-7-21c-5-10-13-17-27-25c-13-7-24-12-31-14c-5-2-6-3-8-4c-2 0-5-1-9-3c-4-1-8-2-8-3c-9-3-18-5-23-4c-3 1-2 2 3 4c2 0 5 1 7 2c1 1 5 2 8 3c3 1 8 3 10 4c3 1 7 3 10 4c6 2 18 7 23 10c25 13 32 21 39 40c2 3 3 7 3 7c2 4 6 21 9 37c2 6 3 19 3 21c-1 3 2 2 4-1zM278 394c3-1 7-1 9-2c2 0 4 0 6 0c3 0 4-2 1-7c-3-6-5-10-7-17c-1-3-2-6-3-7c0 0 0-2 0-3c0-1-1-2-1-2c-1 0-1-2-1-4c-1-3-1-3-11-2c-19 1-17 0-14 14c1 4 2 9 3 11c0 1 1 4 1 6c0 2 1 6 2 9l2 5 3 0c2 0 7-1 10-1zM1332 392c1 0 2-1 4-1c10-1 17-12 18-27c1-11 10-19 20-19c1 0 2 0 3-1c0 0-3-10-5-15c-1-2-6-16-10-29c-2-4-4-11-6-14l-2-6-3 0c-2 0-4 1-4 1c-1 1-4 2-6 2c-10 4-19 15-19 22c0 9-11 17-23 17c-7 0-7 0-4 8c1 1 2 5 3 9c2 4 4 10 5 14c2 4 4 9 5 12c1 3 2 6 2 7c1 1 1 2 1 3c0 1 0 2 1 2c0 0 1 4 2 7c3 8 4 9 12 9c3 0 6 0 6-1zM1474 392c2-1 4-3 4-5c0-1 0-2 0-3c2-2 0-3-4-2c-5 0-7 2-8 9l-1 2 4 0c1 0 4 0 5-1zM1463 387c3-5 2-6-3-8c-4-1-4-2-6 3c-3 6-3 6 1 8c5 2 6 2 8-3zM311 389c0-1-3-8-6-14c0-1-2-5-3-9c-2-4-3-8-4-9c0-1-1-3-1-5l-1-4-5 0c-6 0-6 0-5 3c0 2 1 3 1 4c1 1 1 3 2 4c0 1 1 4 3 8c1 4 3 9 4 11c1 3 3 7 4 9l1 3 5 0c2-1 4-1 5-1zM328 385c5 0 34-4 36-4c0 0 3-3 5-6c3-3 6-7 8-9c2-3 6-7 9-11c3-3 7-8 10-11c5-5 5-5-3-4c-6 0-8 1-44 4c-40 4-44 4-44 5c0 1 3 9 5 13c1 2 3 6 4 9c1 3 3 8 4 10c1 2 2 4 2 4c0 1 2 1 8 0zM153 384c-2 0-5-1-6-2c-2 0-7-1-12-2c-5-2-10-3-11-4c-6-1-8-2-16-4c-22-6-20-4-22-19c-1-5-2-11-3-12c0-1-1-4-1-7c-1-2-1-6-2-7c0-1-1-6-2-10c-2-19-3-19 8-15c6 2 16 5 17 6c1 1 2 1 4 2c2 0 6 2 9 4c3 1 8 3 10 4c20 9 26 15 32 36c0 1 1 4 1 5c1 5 5 21 5 23c0 4-4 4-11 2zM1449 383c1-1 2-3 3-4c1-3 1-4-2-7c-3-3-3-3-6 2c-2 4-2 5 1 9c3 3 3 3 4 0zM159 378c-1-3-4-19-5-21c-1-1-1-4-2-6c-4-13-7-19-15-23c-3-1-7-3-8-4c-1-1-4-2-5-2c-2-1-6-3-9-4c-4-2-8-4-10-5c-2 0-5-2-6-2c-6-2-17-6-18-6c0 1 2 16 5 27c1 4 2 13 4 21c1 11 0 10 21 16c12 3 13 3 19 5c3 0 7 1 10 2c5 1 8 2 13 4c5 1 6 1 6-2zM1481 377c1-2 3-8 3-8c0-1-8-1-9-1c-1 0-4 9-4 10c1 1 9 0 10-1zM1468 373c2-5 3-5-2-7c-5-2-5-2-7 3c-2 4-2 5 2 7c5 2 6 2 7-3zM1443 368c2-3 5-12 6-15c0-1 0-3-1-6c-3-5-3-5-7 7c-1 1-1 2-2 3c0 2 0 3 0 6c1 1 1 4 1 6c0 3 1 3 3-1zM1456 368c0-1 1-3 1-4c1-1 1-2-1-5c-4-4-4-4-6 2l-1 4 2 3c2 3 4 3 5 0zM1393 365c2-4 2-5 0-9c-2-5-2-6-4-11c-1-3-3-7-4-10c-1-2-2-6-3-9c-1-2-2-6-2-7c-1-1-3-6-5-11c-1-6-3-11-4-12c0-1-2-6-3-10c-2-5-3-9-4-10c-3-7-4-9-7-8c-2 1-1 4 7 28c2 4 5 13 7 18c2 5 3 10 4 11c0 1 1 2 1 3c2 6 7 19 9 26c1 4 3 9 4 10c1 2 1 4 1 4c0 2 2 1 3-3zM1336 363c-2-2-3-7-5-10c-1-3-3-7-3-8c-4-8-8-24-7-25c1-1 4 6 6 13c1 2 2 6 3 7c3 7 3 8 6 16c3 11 3 15 0 7zM723 363c1-1 24-15 25-15c0 0 4-2 9-4c5-2 11-5 14-6c3-1 6-2 7-3c3-1 16-5 24-7c4-1 12-3 18-4c16-3 24-4 36-5c33-3 61-1 91 4c11 2 11 2 12-3c4-15 8-21 21-27c16-7 49-9 74-3c19 5 33 9 47 15c8 4 16 8 19 10c5 3 6 2 4 0c0-1-2-3-3-5c-1-2-2-4-2-5c-1 0-3-3-5-7c-17-29-29-39-50-43c-4-1-9-2-11-2c-34-7-92-10-137-7c-9 0-24 1-31 2c-17 0-39 2-62 5c-17 3-29 4-38 6c-2 1-8 2-13 3c-19 4-40 9-46 13c-11 6-14 20-11 49c1 4 2 10 2 14c3 29 3 29 6 25zM1486 363c0-1 1-3 2-5c3-7 3-7-3-6l-4 0-3 6c-1 3-2 5-2 6c1 1 10 1 10-1zM1472 363c1-2 5-11 4-12c0 0-1-1-2-1c0 0-2 0-3-1c-3-2-4-1-6 6c-2 6-2 6 2 8c4 1 4 1 5 0zM1461 353c1-2 2-4 2-4c2-3 1-4-2-7l-2-3-1 3c-1 2-2 4-2 5c-2 3-1 5 1 8c2 3 3 3 4-2zM1439 349c3-8 3-10-1-13c-3-2-6-2-5 0c0 1-1 3-2 6l-2 4 3 4c2 2 4 4 4 4c0 0 1-2 3-5zM213 347c4 0 14-1 21-2c18-1 26-2 34-3c4 0 13-1 21-2c7 0 18-1 24-2c6-1 13-1 16-2c2 0 7 0 10-1c9-1 19-2 45-4c29-2 26-1 35-10c8-8 9-9 5-9c-3 1-15 2-21 3c-7 0-32 3-38 4c-3 0-12 1-19 2c-17 1-30 2-39 3c-4 0-11 1-15 2c-4 0-13 1-19 1c-7 1-19 2-26 3c-8 0-17 1-22 2c-4 0-11 1-16 1c-13 1-15 1-14 3c0 2 2 8 3 10c0 2 2 2 15 1zM1492 347c1-2 2-5 3-7c1-3 1-3-4-3c-4 1-6 2-6 3c0 0-1 2-1 4c-3 4-3 4 3 4c4 0 5 0 5-1zM1479 346c0-1 1-3 2-4c2-4 1-5-3-7c-5-2-6-1-6 2c0 2-1 3-1 3c-1 0-1 2-1 3c0 3 8 6 9 3zM1455 340l2-5-2-4c-3-5-3-6-5-1c-1 2-2 4-2 6c-1 2-1 2 1 6c3 5 3 5 6-2zM1426 342c1-1 2-4 3-6c2-4 2-4-3-5c-4-1-6-1-6 1c0 0 0 2-1 4c-3 7-3 8 1 8c2 1 4 1 4 1c1 0 2-1 2-3zM1468 336c2-5 2-5-1-9l-2-3-2 4c-3 7-3 7-1 10c3 3 4 3 6-2zM1445 333c0-1 2-4 2-6l2-5-2-1c-1-2-6-6-7-5c-1 2-4 12-4 13c0 1 1 2 3 3c1 1 3 2 3 2c2 2 2 2 3-1zM1497 333c2-3 4-12 1-11c-1 0-2 0-3 0c-3 1-9 11-7 12c1 0 8-1 9-1zM1486 328c2-6 2-6-3-8l-3-2-1 2c-1 1-1 2-1 3c0 0-1 1-1 1c-2 2-1 6 1 8c5 2 5 1 8-4zM205 330c13-2 28-4 43-5c8-1 19-2 37-4c8-1 29-3 40-4c9-1 29-2 38-3c11-2 14-2 30-3c8-1 20-2 26-2l12-1 6-5c3-3 8-8 11-11c3-3 9-8 14-12c5-5 10-8 10-9c0-1-20 0-34 1c-4 1-13 1-18 2c-6 0-15 1-20 1c-5 1-14 1-21 2c-10 0-24 1-68 5c-9 1-27 2-54 4c-8 1-19 2-23 2c-15 1-46 4-64 5c-5 0-8 1-8 1c0 1 6 4 7 5c4 0 18 17 21 25c2 6 3 8 6 7c1 0 5-1 9-1zM1461 324c2-5 2-5 1-9c-2-7-4-8-5-3c0 1-1 3-2 5l-2 3 3 5c2 6 2 6 5-1zM1433 325c1-2 2-5 3-7c1-3 1-3-4-5c-4-1-5-1-7 7c-1 2-2 5-2 5c-1 1 0 2 2 2c2 0 3 0 4 1c2 1 3 0 4-3zM1473 325c0 0 1-3 2-5l2-4-2-3c-1-1-2-2-2-3c0-2-2-1-4 4c-2 6-2 6-1 8c3 5 5 6 5 3zM1453 311c3-6 3-7-3-10c-4-2-4-3-6 4c-2 7-2 7 2 10c5 3 5 3 7-4zM1468 308c2-5 2-7 1-10c-2-5-5-7-5-5c0 1-1 4-2 6l-2 5 2 3c1 2 2 4 2 4c1 3 2 2 4-3zM1438 310c1-1 2-3 2-6c1-2 2-4 2-5c1-1 1-1-4-3c-4-1-5-1-7 7c-2 6-2 7 2 7c2 0 3 0 4 0c0 0 1 0 1 0zM1460 294c2-5 2-6-4-9c-4-2-4-2-6 5c-2 5-2 5-1 6c1 0 3 2 5 3c3 3 4 3 6-5zM1446 288c2-3 2-6 2-6c-1-1-7-3-8-3c-1 1-4 8-4 10l-1 3 4 1c5 1 5 1 7-5zM737 263c1-1 6-2 16-4c6-2 11-3 13-3c5-1 9-2 17-4c10-1 19-3 24-4c5-1 14-2 23-3c5 0 13-1 19-2c81-8 156-7 214 4c3 1 3-1-2-6c-10-12-30-24-46-29c-4-1-7-2-8-3c-4-1-7-2-15-4c-4-1-10-2-11-3c-2 0-7-1-12-2c-5-1-13-3-17-3c-3-1-8-2-11-2c-20-3-29-4-65-7c-18-1-92-1-109 0c-7 1-18 1-24 2c-33 2-66 6-89 11c-5 1-8 2-16 3c-7 2-16 4-20 4c-25 7-27 7-27 8c0 0 9 1 21 1c11 0 22 1 24 1c2 1 7 1 10 2c10 1 24 4 27 6c1 0 5 1 8 3c8 2 9 3 19 8c13 6 23 14 29 23c3 5 5 5 8 3z"/></svg>
